<svg width="12" height="7" viewBox="0 0 12 7" fill="none" xmlns="http://www.w3.org/2000/svg">
<path d="M0.734984 5.73495L5.73498 0.734954C5.8053 0.664729 5.90061 0.625284 5.99999 0.625284C6.09936 0.625284 6.19467 0.664729 6.26499 0.734954L11.265 5.73495C11.3312 5.80604 11.3673 5.90006 11.3656 5.99722C11.3639 6.09437 11.3245 6.18706 11.2558 6.25577C11.1871 6.32447 11.0944 6.36383 10.9972 6.36554C10.9001 6.36726 10.8061 6.33119 10.735 6.26495L5.99999 1.53058L1.26499 6.26495C1.1939 6.33119 1.09987 6.36726 1.00272 6.36554C0.905573 6.36383 0.812881 6.32447 0.744174 6.25577C0.675467 6.18706 0.636111 6.09437 0.634398 5.99722C0.632684 5.90006 0.668744 5.80604 0.734984 5.73495Z" fill="white"/>
</svg>
